<svg xmlns="http://www.w3.org/2000/svg" width="1366" height="695"><rect x="0" y="0" width="1366" height="695" fill="#000000"/><path d="M965.842712474619,347.5L964.7853562015166,361.58339801559396L961.652428781548,375.3188240221989L956.557670699845,388.3799474332127L949.6790016279283,400.48093879051555L941.2430888346626,411.390362627813L931.5072784222224,420.9389222761822L920.741357334943,429.02099017163493L909.2112176122439,435.5907973741814L897.1657991092065,440.6547411978944L884.8279179735587,444.2614582798383L872.3889263202293,446.49117308847343L860.0066918052754,447.4454962684035L847.8061514464969,447.2384424370948L835.8816446945864,445.9890595662409L824.3003056452161,443.81576513092324L813.1059332805603,440.83228370097686L802.3229152231617,437.1449680913777L791.9599252653294,432.851241531332L782.0132334329558,428.0388992536958L772.4695556485498,422.78603510191004L763.3084304613723,417.16139779319633L754.5041479212937,411.2250229023785L746.0272762448249,405.0290250091147L737.8458406917141,398.6184672274093L729.9262102694585,392.03225179036224L722.2337446631683,385.30399581476394L714.7332483489774,378.4628716338116L707.3892726361604,371.53440213391923L700.1663002887794,364.5412093047236L693.0288419136647,357.5037195303251L685.941468732742,350.4408326818661L680.9344014001523,345.43528216511277L677.3877416075239,341.9053358778936L673.8130627058016,338.38963756951006L670.1926450936,334.8977427554755L666.508739860922,331.4400253833628L662.7435897453142,328.02801512087603L658.8794838270354,324.6747534304579L654.8988586219135,321.39517171412933L650.7844605958301,318.2064929159869L646.5195879216849,315.1286551294647L642.0884323789822,312.1847516252487L637.4765453752074,309.40147587154075L632.6714546607061,306.8095520837097L627.663459635955,304.44412113423L622.4466320385733,302.34503789630924L617.0200435831093,300.557019191081L611.3892306030077,299.1295619413926L605.5678852255141,298.11653038520524L599.5797302197259,297.5752922828688L593.4604879868581,297.56527208709747L587.259792452844,298.14579167096923L581.0428185554846,299.3730964543545L574.891325942397,301.2965278290233L568.9037475323823,303.95391109375555L563.1939243719089,307.3663843479071L557.8881264590274,311.53308727398917L553.1201343163841,316.4263292567925L549.0244032885631,321.9880121924345L545.7276771019392,328.1281286862286L543.3398027846976,334.72603002759035L541.9448295309127,341.6348325722542L541.5936366670692,348.6888382758284L542.2992424292992,355.71328620280076L544.0355764799028,362.5352744976554L546.7399270087401,368.9944397980155L550.3186444973361,374.95203405779995L554.6551670402224,380.29738005399065L559.619152503861,384.95120908822554L565.0755018072975,388.8659360997144L570.8922886972989,392.02337208249077L576.9469728762485,394.43063257556304L583.1306541170832,396.11506418578153L589.3504409036664,397.1189209893829L595.5302164695343,397.49434482477994L601.6101849190838,397.2990005996269L607.5455921054339,396.59253447857276L613.3049711378999,395.43388231470254L618.8681900185045,393.8793633547901L624.2245008012464,391.9814444565856L629.3707191546985,389.788042323235L634.3096064718202,387.342234552828L639.0484849998865,384.68226532766886L643.5980883762305,381.84175155805866L647.9716327827322,378.8500158955776L652.1840848092612,375.73249180751486L656.2515985008031,372.5111617673923L660.1910939311697,369.2050023182501L664.0199515080853,365.8304195227645L667.7557990409326,362.4016655572275L671.4163717240277,358.93123242332763L675.0194281962746,355.4302224052129L678.5827085015027,351.9086973873671L682.1239219757728,348.3760107918656L688.3215095583166,342.18225387191063L695.4217759134109,335.1258664561705L702.5840351167784,328.1011018548246L709.8437369513597,321.12730049953626L717.2363865280741,314.2255508481376L724.797492625617,307.41936970124226L732.5624445842791,300.7354213981624L740.5662917086294,294.20428192898953L748.8433942453566,287.8612499314832L757.4269092871062,281.74720047944413L766.3480687460017,275.9094687935679L775.6352004645523,270.4027386494681L785.3124386442729,265.28989335493907L795.3980677494483,260.6427647733136L805.9024473844792,256.54268728719086L816.8254778555732,253.0807287841645L828.1535918033194,250.35743093840853L839.8563019241382,248.48184965526215L851.8824040992724,247.5696502000366L864.1560336796873,247.73999129826365L876.5729008744357,249.11094451468432L888.9971822195214,251.7932601877152L901.2596999067092,255.88243143463524L913.1581442055372,261.4492406609144L924.4601344384839,268.5293004327959L934.9098086269428,277.11249532130347L944.2383249059894,287.1336256616825L952.1781265430427,298.4658383736447L958.4801091827312,310.91847045072154L962.932061175607,324.240612207444L965.3761277318474,338.13098131012043L965.7228010204124,352.2536730410098L963.959219908495,366.25823993508953L960.1503839860175,379.80165687757517L954.4330730440236,392.5693190496224L947.0035059385425,404.2924310526369L938.1007409153692,414.7599078731734" stroke="#FFFFFF" stroke-width="3" fill="#000000"/><path d="M683,347.5L683,447.5L683,247.5L683,347.5L833,347.5L833,357.5L833,337.5L833,347.5L533,347.5L533,357.5L533,337.5L533,347.5L683,347.5L983,347.5L383,347.5" stroke="#FFFFFF" stroke-width="3" fill="#000000"/><text x="683" y="497.5" stroke="#FFFFFF" fill="#FFFFFF" style="font: 20pt &quot;Times New Roman&quot;; letter-spacing: 15px; text-anchor: middle;">A N A L E M M A</text><text x="1003" y="352.5" stroke="#FFFFFF" fill="#FFFFFF" style="font: italic 20pt &quot;Times New Roman&quot;;">x</text><text x="678" y="222.5" stroke="#FFFFFF" fill="#FFFFFF" style="font: italic 20pt &quot;Times New Roman&quot;;">y</text></svg>