<svg xmlns="http://www.w3.org/2000/svg" width="1366" height="646"><rect x="0" y="0" width="1366" height="646" fill="#FFFFFF"/><path d="M965.842712474619,323L964.7853562015166,337.08339801559396L961.652428781548,350.8188240221989L956.557670699845,363.8799474332127L949.6790016279283,375.98093879051555L941.2430888346626,386.890362627813L931.5072784222224,396.4389222761822L920.741357334943,404.52099017163493L909.2112176122439,411.0907973741814L897.1657991092065,416.1547411978944L884.8279179735587,419.7614582798383L872.3889263202293,421.99117308847343L860.0066918052754,422.9454962684035L847.8061514464969,422.7384424370948L835.8816446945864,421.4890595662409L824.3003056452161,419.31576513092324L813.1059332805603,416.33228370097686L802.3229152231617,412.6449680913777L791.9599252653294,408.351241531332L782.0132334329558,403.5388992536958L772.4695556485498,398.28603510191004L763.3084304613723,392.66139779319633L754.5041479212937,386.7250229023785L746.0272762448249,380.5290250091147L737.8458406917141,374.1184672274093L729.9262102694585,367.53225179036224L722.2337446631683,360.80399581476394L714.7332483489774,353.9628716338116L707.3892726361604,347.03440213391923L700.1663002887794,340.0412093047236L693.0288419136647,333.0037195303251L685.941468732742,325.9408326818661L678.8688028003047,318.8705643302256L671.7754832150479,311.8106717557872L664.6261254116032,304.77927513902006L657.3852901872002,297.79548551095104L650.0174797218439,290.8800507667256L642.4871794906285,284.056030241752L634.7589676540708,277.3495068609158L626.7977172438269,270.7903434282586L618.56892119166,264.4129858319738L610.0391758433697,258.25731025892935L601.1768647579645,252.36950325049736L591.9530907504147,246.80295174308154L582.3429093214122,241.61910416741944L572.32691927191,236.88824226846L561.8932640771466,232.69007579261853L551.0400871662187,229.114038382162L539.7784612060154,226.2591238827851L528.1357704510282,224.2330607704105L516.1594604394518,223.15058456573763L503.92097597371605,223.13054417419497L491.51958490568785,224.29158334193846L479.08563711096906,226.74619290870896L466.782651884794,230.59305565804664L454.8074950647646,235.9078221875111L443.3878487438178,242.73276869581423L432.77625291805475,251.06617454797828L423.24026863276816,260.8526585135849L415.0488065771262,271.97602438486905L408.4553542038784,284.2562573724572L403.67960556939505,297.4520600551807L400.8896590618253,311.2696651445084L400.18727333413847,325.3776765516568L401.5984848585984,339.4265724056015L405.0711529598056,353.0705489953108L410.4798540174801,365.988879596031L417.6372889946722,377.90406811559984L426.31033408044476,388.5947601079813L436.2383050077219,397.90241817645114L447.1510036145951,405.73187219942884L458.7845773945979,412.04674416498153L470.8939457524972,416.8612651511261L483.26130823416634,420.23012837156307L495.7008818073327,422.2378419787658L508.06043293906856,422.9886896495599L520.2203698381678,422.59800119925376L532.0911842108678,421.1850689571455L543.6099422757997,418.8677646294051L554.7363800370091,415.7587267095802L565.4490016024929,411.96288891317124L575.741438309397,407.57608464647L585.6192129436405,402.68446910565604L595.096969999773,397.3645306553377L604.196176752461,391.6835031161173L612.9432655654643,385.7000317911552L621.3681696185224,379.4649836150297L629.5031970016062,373.02232353478456L637.3821878623393,366.41000463650016L645.0399030161708,359.660839045529L652.5115980818653,352.803331114455L659.8327434480556,345.8624648466552L667.0388563925492,338.8604448104257L674.1654170030054,331.8173947747342L681.2478439515455,324.7520215837313L688.3215095583166,317.68225387191063L695.4217759134109,310.6258664561705L702.5840351167784,303.6011018548246L709.8437369513597,296.62730049953626L717.2363865280741,289.7255508481376L724.797492625617,282.91936970124226L732.5624445842791,276.2354213981624L740.5662917086294,269.70428192898953L748.8433942453566,263.3612499314832L757.4269092871062,257.24720047944413L766.3480687460017,251.4094687935679L775.6352004645523,245.90273864946812L785.3124386442729,240.78989335493907L795.3980677494483,236.14276477331362L805.9024473844792,232.04268728719086L816.8254778555732,228.5807287841645L828.1535918033194,225.85743093840853L839.8563019241382,223.98184965526215L851.8824040992724,223.0696502000366L864.1560336796873,223.23999129826365L876.5729008744357,224.61094451468432L888.9971822195214,227.2932601877152L901.2596999067092,231.38243143463524L913.1581442055372,236.94924066091443L924.4601344384839,244.02930043279588L934.9098086269428,252.61249532130347L944.2383249059894,262.6336256616825L952.1781265430427,273.9658383736447L958.4801091827312,286.41847045072154L962.932061175607,299.740612207444L965.3761277318474,313.63098131012043L965.7228010204124,327.7536730410098L963.959219908495,341.75823993508953L960.1503839860175,355.30165687757517L954.4330730440236,368.0693190496224L947.0035059385425,379.7924310526369L938.1007409153692,390.2599078731734L927.9882855806577,399.3239845345994L916.9362980486115,406.89981540399083L905.2062388943884,412.9601781769028L893.0390893021527,417.5268474027087L880.6475014575178,420.6602692893443L868.2116477994457,422.4489502313553L855.8781552444809,422.9995993874818" stroke="#000000" stroke-width="3" fill="#FFFFFF"/><path d="M683,323L683,423L683,223L683,323L833,323L833,333L833,313L833,323L533,323L533,333L533,313L533,323L683,323L983,323L383,323" stroke="#000000" stroke-width="3" fill="#FFFFFF"/><text x="683" y="473" stroke="#000000" fill="#000000" style="font: 20pt &quot;Times New Roman&quot;; letter-spacing: 15px; text-anchor: middle;">L  E  M  N  I  S  C  A  T  E</text><text x="1003" y="328" stroke="#000000" fill="#000000" style="font: italic 20pt &quot;Times New Roman&quot;;">x</text><text x="678" y="198" stroke="#000000" fill="#000000" style="font: italic 20pt &quot;Times New Roman&quot;;">y</text></svg>