<svg xmlns="http://www.w3.org/2000/svg" width="1366" height="646"><rect x="0" y="0" width="1366" height="646" fill="#FFFFFF"/><path d="M965.842712474619,323L964.7853562015166,337.08339801559396L961.652428781548,350.8188240221989L956.557670699845,363.8799474332127L949.6790016279283,375.98093879051555L941.2430888346626,386.890362627813L931.5072784222224,396.4389222761822L920.741357334943,404.52099017163493L909.2112176122439,411.0907973741814L897.1657991092065,416.1547411978944L884.8279179735587,419.7614582798383L872.3889263202293,421.99117308847343L860.0066918052754,422.9454962684035L847.8061514464969,422.7384424370948L835.8816446945864,421.4890595662409L824.3003056452161,419.31576513092324L813.1059332805603,416.33228370097686L802.3229152231617,412.6449680913777L791.9599252653294,408.351241531332L782.0132334329558,403.5388992536958L772.4695556485498,398.28603510191004L763.3084304613723,392.66139779319633L754.5041479212937,386.7250229023785L746.0272762448249,380.5290250091147L737.8458406917141,374.1184672274093L729.9262102694585,367.53225179036224L722.2337446631683,360.80399581476394L714.7332483489774,353.9628716338116L707.3892726361604,347.03440213391923L700.1663002887794,340.0412093047236L693.0288419136647,333.0037195303251L685.941468732742,325.9408326818661L680.9344014001523,320.93528216511277L677.3877416075239,317.4053358778936L673.8130627058016,313.88963756951006L670.1926450936,310.3977427554755L666.508739860922,306.9400253833628L662.7435897453142,303.52801512087603L658.8794838270354,300.1747534304579L654.8988586219135,296.89517171412933L650.7844605958301,293.7064929159869L646.5195879216849,290.6286551294647L642.0884323789822,287.6847516252487L637.4765453752074,284.90147587154075L632.6714546607061,282.3095520837097L627.663459635955,279.94412113423L622.4466320385733,277.84503789630924L617.0200435831093,276.057019191081L611.3892306030077,274.6295619413926L605.5678852255141,273.61653038520524L599.5797302197259,273.0752922828688L593.4604879868581,273.06527208709747L587.259792452844,273.64579167096923L581.0428185554846,274.8730964543545L574.891325942397,276.7965278290233L568.9037475323823,279.45391109375555L563.1939243719089,282.8663843479071L557.8881264590274,287.03308727398917L553.1201343163841,291.9263292567925L549.0244032885631,297.4880121924345L545.7276771019392,303.6281286862286L543.3398027846976,310.22603002759035L541.9448295309127,317.1348325722542L541.5936366670692,324.1888382758284L542.2992424292992,331.21328620280076L544.0355764799028,338.0352744976554L546.7399270087401,344.4944397980155L550.3186444973361,350.45203405779995L554.6551670402224,355.79738005399065L559.619152503861,360.45120908822554L565.0755018072975,364.3659360997144L570.8922886972989,367.52337208249077L576.9469728762485,369.93063257556304L583.1306541170832,371.61506418578153L589.3504409036664,372.6189209893829L595.5302164695343,372.99434482477994L601.6101849190838,372.7990005996269L607.5455921054339,372.09253447857276L613.3049711378999,370.93388231470254L618.8681900185045,369.3793633547901L624.2245008012464,367.4814444565856L629.3707191546985,365.288042323235L634.3096064718202,362.842234552828L639.0484849998865,360.18226532766886L643.5980883762305,357.34175155805866L647.9716327827322,354.3500158955776L652.1840848092612,351.23249180751486L656.2515985008031,348.0111617673923L660.1910939311697,344.7050023182501L664.0199515080853,341.3304195227645L667.7557990409326,337.9016655572275L671.4163717240277,334.43123242332763L675.0194281962746,330.9302224052129L678.5827085015027,327.4086973873671L682.1239219757728,323.8760107918656L688.3215095583166,317.68225387191063L695.4217759134109,310.6258664561705L702.5840351167784,303.6011018548246L709.8437369513597,296.62730049953626L717.2363865280741,289.7255508481376L724.797492625617,282.91936970124226L732.5624445842791,276.2354213981624L740.5662917086294,269.70428192898953L748.8433942453566,263.3612499314832L757.4269092871062,257.24720047944413L766.3480687460017,251.4094687935679L775.6352004645523,245.90273864946812L785.3124386442729,240.78989335493907L795.3980677494483,236.14276477331362L805.9024473844792,232.04268728719086L816.8254778555732,228.5807287841645L828.1535918033194,225.85743093840853L839.8563019241382,223.98184965526215L851.8824040992724,223.0696502000366L864.1560336796873,223.23999129826365L876.5729008744357,224.61094451468432L888.9971822195214,227.2932601877152L901.2596999067092,231.38243143463524L913.1581442055372,236.94924066091443L924.4601344384839,244.02930043279588L934.9098086269428,252.61249532130347L944.2383249059894,262.6336256616825L952.1781265430427,273.9658383736447L958.4801091827312,286.41847045072154L962.932061175607,299.740612207444L965.3761277318474,313.63098131012043L965.7228010204124,327.7536730410098L963.959219908495,341.75823993508953L960.1503839860175,355.30165687757517L954.4330730440236,368.0693190496224L947.0035059385425,379.7924310526369L938.1007409153692,390.2599078731734" stroke="#000000" stroke-width="3" fill="#FFFFFF"/><path d="M683,323L683,423L683,223L683,323L833,323L833,333L833,313L833,323L533,323L533,333L533,313L533,323L683,323L983,323L383,323" stroke="#000000" stroke-width="3" fill="#FFFFFF"/><text x="683" y="473" stroke="#000000" fill="#000000" style="font: 20pt &quot;Times New Roman&quot;; letter-spacing: 15px; text-anchor: middle;">A N A L E M M A</text><text x="1003" y="328" stroke="#000000" fill="#000000" style="font: italic 20pt &quot;Times New Roman&quot;;">x</text><text x="678" y="198" stroke="#000000" fill="#000000" style="font: italic 20pt &quot;Times New Roman&quot;;">y</text></svg>