<svg xmlns="http://www.w3.org/2000/svg" width="1366" height="695"><rect x="0" y="0" width="1366" height="695" fill="#FFFFFF"/><path d="M908,347.5L907.437851455097,362.48438163911385L905.755618129797,377.3752123066538L902.9658983748268,392.0797353706404L899.0895612264026,406.50677529240795L894.1555553983746,420.5675092834937L888.2006444870667,434.1762165038286L881.2690709734435,447.25099766114454L873.4121523014702,459.7144581637618L864.6878129732014,471.4943483387458L855.1600572236664,482.52415465122266L844.8983874158441,492.7436363442065L833.9771738222023,502.0993024567973L822.4749819292024,510.5448247666954L810.4738638101913,518.0413828347882L798.0586204561508,524.5579379988042L785.3160422294782,530.0714338630413L772.334134810583,534.5669215549791L759.2013381386181,538.0376087599872L746.0057459048197,540.4848322949622L732.8343331391852,541.9179547331106L719.7721993387697,542.354186337768L706.9018344196857,541.8183342956845L694.3024145366367,540.3424819523322L682.0491345059075,537.9656014364202L670.2125831932701,534.7331037111346L658.858167791017,530.6963306991887L648.0455924126766,525.911994691536L637.8283958848866,520.4415707599618L628.2535530188856,514.3506483466869L619.3611430051219,507.7082485950981L611.1840878999678,500.58611431090026L603.7479634702001,493.05797969915716L597.0708839358249,485.19882720734404L591.1634614122116,477.0841389158578L586.0288401057663,468.7891499543689L581.6628045709758,460.3881113846152L578.0539605980424,451.95356987815785L575.1839865768932,443.55567133240805L573.0279524822964,435.26149531178214L571.5547029531577,427.13442687575747L570.7273003034979,419.23357196517543L570.5035227094689,411.6132220663119L570.8364122719612,404.3223733635655L571.6748671633167,397.4043050312248L572.9642716342806,390.8962207083059L574.6471572878972,384.82895655399824L576.6638887242501,379.22675860131915L578.9533664267716,374.1071314199846L581.453739599597,369.4807593733507L584.1031215777018,365.35150101585816L586.8403004181902,361.7164564341327L589.6054373421861,358.56610659420824L592.3407458316941,355.88452302668986L594.9911443931384,353.6496454683755L597.5048762769749,351.83362439007044L599.8340897879699,350.4032246829617L601.9353732299734,349.3202861565589L603.7702389981603,348.5422359260656L605.3055518560345,348.0226472418864L606.5138970087106,347.71183884406065L607.3738842023346,347.5575085144584L607.8703847357493,347.5053941536813L607.9946989580549,347.4999554312539L607.7446525376515,347.48506884965L607.1246205175199,347.4047289270699L606.1454789105601,347.20374814201614L604.8244843303589,346.8284482952349L603.1850828893179,346.227336031371L601.2566503202562,345.3517554228507L599.0741659821286,344.15651075046634L596.6778240882693,342.6004529165469L594.1125861397973,340.64702329445885L591.4276791509925,338.26474924878767L588.6760448115184,335.4276860495983L585.9137452366931,332.11580044675424L583.199331406507,328.3152917609541L580.593180782214,324.0188469810004L578.156810912178,319.2258270254999L575.9521760929589,313.94238202500674L574.0409543348125,308.1814942005651L572.4838319909796,301.96294764945304L571.3397934462222,295.3132250913223L570.6654232216304,288.26533237040604L570.5142277401436,280.8585522445839L570.9359838115693,273.13812971247535L571.9761206390026,265.15489182814144L573.675141822975,256.9648056223976L576.0680934486124,248.62847838345607L579.1840838884721,240.2106051412469L583.0458604440316,231.77936874336854L587.6694473871129,223.40579840071726L593.0638493544286,215.16309301250024L599.2308234000049,207.12591594919914L606.1647223279247,199.36966827438803L613.8524112184666,191.96974761905886L622.2732583313559,185.0008000829016L631.3992008277861,178.53597262417344L641.1948850055279,172.6461734124566L651.6178799962635,167.39934755657876L662.6189631387479,162.85977548382732L674.142474522822,159.0874010376485L686.1267375049047,156.13719608132496L698.5045413322871,154.058568047426L711.2036813880117,152.89481646055316L724.147551986574,152.68264398813588L737.2557861189841,153.45172704545408L750.4449360691872,155.22435040191206L763.629188407242,158.0151096116143L776.7211065121955,161.83068442868654L789.6323934927899,166.66968567313722L802.2746681598859,172.52257729326004L814.560246562941,179.37167463280127L826.4029215354806,187.19121916268986L837.7187327019631,195.9475291855014L848.426719480701,205.5992252734766L858.4496497737935,216.09752846528053L867.7147172638005,227.38662853009066L876.1542005359162,239.40411891717713L883.7060776107102,252.08149435175795L890.3145899024902,265.3447064201249L895.9307501077324,279.11477191499233L900.5127890719843,293.30842819141964L904.0265372767652,307.83882931968327L906.4457372243969,322.6162764187481L907.7522836720682,337.5489752165222L907.9363893700877,352.54381361423344L906.9966746862221,367.50715183472477L904.9401802410373,382.345617610185L901.7823024308675,396.9668988150662L897.5466524679696,411.28052597516614L892.2648403141075,425.1986371838407L885.9761856168153,438.6367181300444L878.7273584696545,451.5143101886612L870.5719535018108,463.7556798389196L861.5700014516065,475.29044305846065L851.7874229864632,486.0541387850251L841.2954300925273,495.98874604033324L830.1698808649859,505.04313986653494" stroke="#000000" stroke-width="3" fill="#FFFFFF"/><text x="683" y="597.5" stroke="#000000" fill="#000000" style="font: 20pt &quot;Times New Roman&quot;; letter-spacing: 15px; text-anchor: middle;">C  A  R  D  I  O  I  D</text><text x="948" y="352.5" stroke="#000000" fill="#000000" style="font: italic 20pt &quot;Times New Roman&quot;;">x</text><text x="603" y="122.5" stroke="#000000" fill="#000000" style="font: italic 20pt &quot;Times New Roman&quot;;">y</text><path d="M608,347.5L608,547.5L608,147.5L608,347.5L758,347.5L758,357.5L758,337.5L758,347.5L458,347.5L458,357.5L458,337.5L458,347.5L608,347.5L933,347.5L383,347.5" stroke="#000000" stroke-width="3"/></svg>