<svg xmlns="http://www.w3.org/2000/svg" width="1366" height="695"><rect x="0" y="0" width="1366" height="695" fill="#000000"/><circle stroke="#FFFFFF" fill="#FFFFFF" r="10" cx="750" cy="200"/><circle stroke="#FFFFFF" fill="#FFFFFF" r="10" cx="350" cy="100"/><circle stroke="#FFFFFF" fill="#FFFFFF" r="10" cx="500" cy="200"/><circle stroke="#FFFFFF" fill="#FFFFFF" r="10" cx="550" cy="400"/><circle stroke="#FFFFFF" fill="#FFFFFF" r="10" cx="400" cy="400"/><circle stroke="#FFFFFF" fill="#FFFFFF" r="10" cx="525" cy="100"/><circle stroke="#FFFFFF" fill="#FFFFFF" r="10" cx="600" cy="300"/><circle stroke="#FFFFFF" fill="#FFFFFF" r="10" cx="475" cy="600"/><circle stroke="#FFFFFF" fill="#FFFFFF" r="10" cx="575" cy="650"/><path d="M750,200L500,200" stroke="#FFFFFF" stroke-width="3" fill="#FFFFFF"/><path d="M550,400L500,200" stroke="#FFFFFF" stroke-width="3" fill="#FFFFFF"/><path d="M350,100L500,200" stroke="#FFFFFF" stroke-width="3" fill="#FFFFFF"/><path d="M400,400L550,400" stroke="#FFFFFF" stroke-width="3" fill="#FFFFFF"/><path d="M500,200L525,100" stroke="#FFFFFF" stroke-width="3" fill="#FFFFFF"/><path d="M400,400L500,200" stroke="#FFFFFF" stroke-width="3" fill="#FFFFFF"/><path d="M750,200L600,300" stroke="#FFFFFF" stroke-width="3" fill="#FFFFFF"/><path d="M550,400L600,300" stroke="#FFFFFF" stroke-width="3" fill="#FFFFFF"/><path d="M500,200L600,300" stroke="#FFFFFF" stroke-width="3" fill="#FFFFFF"/><path d="M550,400L475,600" stroke="#FFFFFF" stroke-width="3" fill="#FFFFFF"/><path d="M550,400L575,650" stroke="#FFFFFF" stroke-width="3" fill="#FFFFFF"/><text x="783" y="397.5" stroke="#FFFFFF" fill="#FFFFFF" style="font: 20pt &quot;Times New Roman&quot;; letter-spacing: 15px; text-anchor: middle;">E  U  L  E  R</text></svg>